<svg xmlns="http://www.w3.org/2000/svg" viewBox="0 0 128 128"><defs><linearGradient id="base" x2="0" y2="1"><stop stop-color="#e6e8ec"/><stop offset="1" stop-color="#999fa9"/></linearGradient><linearGradient id="shine" x2="0" y2="1"><stop stop-color="#fff" stop-opacity=".35"/><stop offset="1" stop-color="#fff" stop-opacity="0"/></linearGradient><clipPath id="tile"><rect x="4" y="4" width="120" height="120" rx="27"/></clipPath></defs><g clip-path="url(#tile)"><rect x="4" y="4" width="120" height="120" rx="27" fill="url(#base)"/><g transform="translate(64 64)" fill="#bfc2c8" stroke="#464b55" stroke-width="3"><rect x="-9" y="-47" width="18" height="21" rx="3" transform="rotate(0)"/><rect x="-9" y="-47" width="18" height="21" rx="3" transform="rotate(45)"/><rect x="-9" y="-47" width="18" height="21" rx="3" transform="rotate(90)"/><rect x="-9" y="-47" width="18" height="21" rx="3" transform="rotate(135)"/><rect x="-9" y="-47" width="18" height="21" rx="3" transform="rotate(180)"/><rect x="-9" y="-47" width="18" height="21" rx="3" transform="rotate(225)"/><rect x="-9" y="-47" width="18" height="21" rx="3" transform="rotate(270)"/><rect x="-9" y="-47" width="18" height="21" rx="3" transform="rotate(315)"/><circle r="35"/><circle r="22" fill="#555c67"/><circle r="12" fill="#c8ccd1"/></g><rect x="5" y="5" width="118" height="118" rx="26" fill="none" stroke="url(#shine)" stroke-width="2"/></g></svg>
